HIERARCHY
ROOT Hips
{
	OFFSET -3.958830 18.904000 13.208200
	CHANNELS 6 Xposition Yposition Zposition Zrotation Yrotation Xrotation 
	JOINT LHipJoint
	{
		OFFSET 0.000000 0.000000 0.000000
		CHANNELS 3 Zrotation Yrotation Xrotation
		JOINT LeftUpLeg
		{
			OFFSET 1.800000 -1.400000 0.085000
			CHANNELS 3 Zrotation Yrotation Xrotation
			JOINT LeftLeg
			{
				OFFSET 2.215000 -6.000000 0.000000
				CHANNELS 3 Zrotation Yrotation Xrotation
				JOINT LeftFoot
				{
					OFFSET 2.500000 -6.900000 0.000000
					CHANNELS 3 Zrotation Yrotation Xrotation
					JOINT LeftToeBase
					{
						OFFSET 0.200000 -0.500000 1.950000
						CHANNELS 3 Zrotation Yrotation Xrotation
						End Site
						{
							OFFSET 0.000000 0.000000 0.000000
						}
					}
				}
			}
		}
	}
	JOINT RHipJoint
	{
		OFFSET 0.000000 0.000000 0.000000
		CHANNELS 3 Zrotation Yrotation Xrotation
		JOINT RightUpLeg
		{
			OFFSET -1.800000 -1.400000 0.085000
			CHANNELS 3 Zrotation Yrotation Xrotation
			JOINT RightLeg
			{
				OFFSET -2.215000 -6.000000 0.000000
				CHANNELS 3 Zrotation Yrotation Xrotation
				JOINT RightFoot
				{
					OFFSET -2.500000 -6.900000 0.000000
					CHANNELS 3 Zrotation Yrotation Xrotation
					JOINT RightToeBase
					{
						OFFSET -0.200000 -0.500000 1.950000
						CHANNELS 3 Zrotation Yrotation Xrotation
						End Site
						{
							OFFSET 0.000000 0.000000 0.000000
						}
					}
				}
			}
		}
	}
	JOINT LowerBack
	{
		OFFSET 0.000000 0.000000 0.000000
		CHANNELS 3 Zrotation Yrotation Xrotation
		JOINT Spine
		{
			OFFSET -0.087000 1.940000 -0.288900
			CHANNELS 3 Zrotation Yrotation Xrotation
			JOINT Spine1
			{
				OFFSET 0.000000 1.950000 0.060000
				CHANNELS 3 Zrotation Yrotation Xrotation
				JOINT Neck
				{
					OFFSET 0.000000 0.000000 0.000000
					CHANNELS 3 Zrotation Yrotation Xrotation
					JOINT Neck1
					{
						OFFSET 0.000000 1.600000 0.340000
						CHANNELS 3 Zrotation Yrotation Xrotation
						JOINT Head
						{
							OFFSET 0.000000 1.667000 -0.240000
							CHANNELS 3 Zrotation Yrotation Xrotation
							End Site
							{
								OFFSET 0.000000 0.000000 0.000000
							}
						}
					}
				}
				JOINT LeftShoulder
				{
					OFFSET 0.000000 0.000000 0.000000
					CHANNELS 3 Zrotation Yrotation Xrotation
					JOINT LeftArm
					{
						OFFSET 2.700000 1.550000 -0.730000
						CHANNELS 3 Zrotation Yrotation Xrotation
						JOINT LeftForeArm
						{
							OFFSET 5.450000 0.000000 0.000000
							CHANNELS 3 Zrotation Yrotation Xrotation
							JOINT LeftHand
							{
								OFFSET 3.450000 0.000000 0.000000
								CHANNELS 3 Zrotation Yrotation Xrotation
								JOINT LeftHandIndex1
								{
									OFFSET 0.750000 0.000000 0.000000
									CHANNELS 3 Zrotation Yrotation Xrotation
									End Site
									{
										OFFSET 0.000000 0.000000 0.000000
									}
								}
							}
						}
					}
				}
				JOINT RightShoulder
				{
					OFFSET 0.000000 0.000000 0.000000
					CHANNELS 3 Zrotation Yrotation Xrotation
					JOINT RightArm
					{
						OFFSET -2.700000 1.550000 -0.730000
						CHANNELS 3 Zrotation Yrotation Xrotation
						JOINT RightForeArm
						{
							OFFSET -5.450000 0.000000 0.000000
							CHANNELS 3 Zrotation Yrotation Xrotation
							JOINT RightHand
							{
								OFFSET -3.450000 0.000000 0.000000
								CHANNELS 3 Zrotation Yrotation Xrotation
								JOINT RightHandIndex1
								{
									OFFSET -0.750000 0.000000 0.000000
									CHANNELS 3 Zrotation Yrotation Xrotation
									End Site
									{
										OFFSET 0.000000 0.000000 0.000000
									}
								}
							}
						}
					}
				}
			}
		}
	}
}
MOTION
Frames: 7
Frame Time: 0.016667
9.156850 16.232820 -6.068780 14.373730 39.417200 4.186968 -15.482583 14.458602 2.692863 25.057091 -1.854374 8.692467 1.594952 6.892840 13.659975 0.535231 6.268709 2.521132 -0.114990 -0.093770 -0.142100 17.778122 -9.957337 3.367274 -0.730653 5.885938 -23.636883 13.377702 -7.077820 24.008648 -0.049271 -3.714720 3.014519 0.009260 0.280860 -0.013840 -3.422441 -4.003574 -8.058565 -8.052910 -5.219788 19.553469 -4.411143 -4.592257 3.187144 -0.644967 -6.198260 -17.915028 -16.091158 14.979980 32.986662 4.251180 9.682920 1.388540 30.745912 -1.308593 5.368391 35.667103 9.703529 1.734979 29.700610 -6.087710 0.109838 -4.679213 3.155154 0.012250 0.136500 -0.124220 0.018430 -28.049501 5.564536 5.688620 -29.864674 -9.650989 -0.114727 -37.915841 18.243874 -2.811902 3.499508 -2.149661 -0.159070 0.142820 0.133400 0.017460 
9.170000 16.176960 -5.904000 15.399640 39.248000 6.289542 -15.427125 14.255026 2.771459 26.250774 -2.312115 4.397705 2.536022 5.855123 10.205345 0.447639 5.742256 2.683961 -0.129110 -0.090010 -0.193150 17.829951 -9.999188 3.369801 0.373739 6.115863 -24.071090 11.369524 -6.491233 24.442250 -0.010613 -3.569504 3.081293 0.008490 0.321670 -0.006070 -3.574752 -3.733685 -8.124999 -9.803860 -5.404658 19.602152 -4.536742 -5.070454 1.304368 -0.482394 -5.884974 -18.940512 -14.482046 15.076656 29.612577 5.733300 9.535320 1.218380 32.402077 0.275144 5.617600 36.693882 11.267774 2.010196 29.735609 -3.313551 0.433341 -4.790182 3.114986 -0.027120 0.157660 -0.149740 0.040130 -29.578881 4.085159 5.829042 -29.072336 -11.441543 0.220290 -32.625472 16.359982 -1.635886 3.609777 -2.222128 -0.148990 0.135810 0.136570 0.047550 
9.178050 16.114850 -5.772200 15.566051 39.292456 6.613066 -15.410167 14.125896 2.876006 27.877950 -2.359877 -0.093861 3.401303 5.252661 8.473518 0.374350 5.387930 2.755072 -0.118400 -0.085420 -0.173510 17.849499 -9.990013 3.329454 1.206601 6.189661 -23.226398 10.472431 -6.311991 24.861854 -0.032990 -3.556252 3.090612 -0.000240 0.292200 -0.002340 -3.624604 -3.643862 -8.162396 -10.993375 -5.090151 20.811564 -3.658873 -5.033152 0.025302 0.174714 -6.488570 -19.995603 -15.377797 14.399148 27.445842 4.902510 9.079970 -0.200690 33.056574 1.652659 5.933838 36.826487 12.310306 1.963140 29.322063 -0.552618 0.646884 -4.819235 3.000721 -0.012620 0.134570 -0.129650 0.038380 -30.783538 4.224840 6.778890 -28.756442 -12.567205 -0.217448 -28.056083 10.377072 -0.551443 3.650158 -2.048915 -0.136500 0.127610 0.123840 0.043680 
9.174380 16.058120 -5.671560 14.691578 38.867979 5.510066 -15.394766 13.960159 2.934475 29.919912 -1.668810 -6.209657 3.730031 5.211510 9.426445 0.276155 5.126156 2.755216 -0.094690 -0.064760 -0.143690 17.899637 -10.026581 3.270057 2.343271 6.051862 -21.298413 10.029483 -6.326711 25.219395 -0.075426 -3.661871 3.064949 0.008140 0.267290 -0.002340 -3.688148 -3.395372 -8.174203 -10.740774 -4.038463 22.894208 -3.393528 -4.123130 -1.065440 0.511565 -7.257631 -19.784707 -16.403343 13.336070 25.528483 3.427970 8.391950 -1.535910 32.377125 2.395605 5.901732 37.520610 12.867483 1.921602 28.692581 2.409767 0.789179 -4.773434 2.885766 -0.011380 0.122620 -0.118530 0.040680 -30.215297 4.651293 7.585699 -29.501537 -14.477740 0.045033 -25.335245 4.508900 -0.037254 3.692722 -1.769898 -0.125850 0.128070 0.104330 0.039220 
9.162000 16.021370 -5.558120 15.838807 39.810209 4.846509 -15.426690 13.665995 3.233134 31.316849 -1.262647 -9.874888 2.851711 5.221430 8.004956 0.256810 5.049822 2.720697 -0.115720 -0.115440 -0.147330 17.914672 -10.068366 3.076402 2.240250 5.520740 -20.216943 7.840144 -5.990798 26.265533 -0.076453 -3.683615 3.059454 -0.032930 0.243790 -0.001500 -3.649376 -3.149161 -8.220681 -11.857739 -3.791419 23.983737 -4.924139 -4.107251 -0.258879 1.075570 -8.152770 -19.174717 -17.947246 12.632685 25.790572 3.088990 7.645600 -1.085440 29.655370 1.361988 5.915921 39.192258 13.744894 1.643248 30.080362 5.645435 1.113720 -4.656746 2.811521 0.017590 0.096300 -0.111890 0.028850 -28.549254 6.834059 8.796059 -29.858874 -16.904779 0.322883 -23.498792 1.198486 0.223299 3.745692 -1.534739 -0.125380 0.107100 0.115670 0.029570 
9.164850 15.971640 -5.472140 14.842245 39.498871 3.961258 -15.430477 13.358318 3.463894 31.797939 -1.023648 -12.992170 2.375505 5.013737 6.266850 0.245659 4.910259 2.728002 -0.094330 -0.092830 -0.135180 17.967768 -9.944263 3.040557 2.064932 5.400453 -19.485610 10.405143 -6.703264 25.261729 -0.124565 -3.818174 3.008705 -0.028610 0.223460 0.004240 -3.644789 -3.024312 -8.326487 -10.593632 -3.482061 24.476189 -6.124513 -3.449991 0.008782 1.245817 -8.571195 -18.860733 -18.536388 12.436615 25.158291 3.177860 7.320320 -1.696850 28.796180 0.914272 5.992323 39.576057 13.712326 1.152889 30.566340 8.058054 1.325026 -4.625823 2.774826 0.023400 0.078420 -0.095380 0.033380 -27.990463 7.453530 9.041495 -30.411906 -18.523072 0.480094 -22.531029 -1.153264 0.344759 3.812988 -1.387770 -0.107860 0.097390 0.102190 0.033610 
9.132560 15.920680 -5.388380 13.464464 38.968832 1.844294 -15.420836 13.214112 3.516588 31.119058 -0.735510 -15.361462 2.405113 4.771600 5.427114 0.220341 4.705913 2.789511 -0.090550 -0.076900 -0.141730 18.024137 -9.848988 3.110087 4.334554 5.717740 -18.647926 9.974916 -6.739242 26.487411 -0.168406 -3.981492 2.958661 -0.020340 0.228430 0.005040 -3.681156 -2.943524 -8.366556 -10.232475 -3.058219 26.613694 -5.854302 -3.004084 -0.156495 1.212183 -8.753577 -18.648869 -18.721852 12.368024 24.264836 2.566930 7.394360 -1.604000 28.532252 0.232611 6.276827 39.529646 13.572082 0.290134 30.737143 10.760814 1.519911 -4.681045 2.724484 -0.002330 0.089160 -0.103190 0.041420 -27.605959 8.045722 9.185773 -30.750519 -19.211637 0.058654 -23.152289 -3.600578 0.433656 3.897765 -1.317977 -0.098410 0.092670 0.094360 0.043770 
